<?xml version="1.0" encoding="utf-8"?>
<!-- Generator: Adobe Illustrator 23.0.2, SVG Export Plug-In . SVG Version: 6.00 Build 0)  -->
<svg version="1.1" id="Layer_1" xmlns="http://www.w3.org/2000/svg" xmlns:xlink="http://www.w3.org/1999/xlink" x="0px" y="0px"
	 viewBox="0 0 110 50" style="enable-background:new 0 0 110 50;" xml:space="preserve">
<style type="text/css">
	.st0{fill-rule:evenodd;clip-rule:evenodd;fill:#231F20;}
	.st1{fill-rule:evenodd;clip-rule:evenodd;fill:#FFFFFF;}
</style>
<g>
	<path class="st0" d="M32.42,39.6c-3.3,2.6-7.19,4.11-11.43,4.11c-9.72,0-18.49-8.02-18.49-17.9c0-5.06,1.9-10.03,5.51-13.6
		C11.26,9.02,15.81,7,20.37,7c4.45,0,8.68,1.24,12.09,4.14c3.2-2.65,7.35-4.11,11.52-4.11c4.28,0,8.4,1.44,11.69,4.18
		c3.27-2.85,7.44-4.14,11.74-4.14c4.21,0,8.23,1.5,11.49,4.13c3.49-2.73,7.69-4.11,12.14-4.11c3.97,0,8.01,1.64,11.06,4.15
		c4.21,3.44,6.72,8.71,6.72,14.14c0,10.09-8.11,18.41-18.25,18.41c-4.3,0-8.42-1.35-11.68-4.17c-3.24,2.55-7.3,4.15-11.45,4.15
		c-4.33,0-8.49-1.32-11.8-4.17c-3.33,2.61-7.4,4.13-11.65,4.13C39.75,43.74,35.62,42.4,32.42,39.6L32.42,39.6z"/>
	<path class="st1" d="M28.38,34.98c-1.63-2.72-2.67-5.87-2.67-9.06c0-3.66,0.84-7.04,2.7-10.2c-2.38-1.64-5.12-2.63-8.05-2.63
		c-6.73,0-11.76,6.24-11.76,12.68c0,6.57,6,11.8,12.38,11.8C23.7,37.58,26.25,36.59,28.38,34.98L28.38,34.98z"/>
	<path class="st1" d="M32.41,29.23c0.49-1.28,0.66-2.63,0.66-4c0-1.29-0.25-2.56-0.63-3.79c-0.39,1.2-0.62,2.45-0.62,3.71
		C31.81,26.55,31.98,27.91,32.41,29.23L32.41,29.23z"/>
	<path class="st1" d="M36.45,34.98c2.38,1.88,5.16,2.61,8.18,2.61c2.59,0,4.97-1.07,7-2.6c-1.88-3.08-2.69-6.44-2.69-10.05
		c0-3.22,1.11-6.41,2.73-9.16c-2.24-1.62-4.88-2.65-7.67-2.65c-2.8,0-5.34,0.94-7.52,2.64c1.95,3.17,2.68,6.68,2.68,10.38
		C39.15,29.22,38.05,32.39,36.45,34.98L36.45,34.98z"/>
	<path class="st1" d="M55.61,29.26c0.41-1.26,0.69-2.63,0.69-3.95c0-1.35-0.21-2.55-0.67-3.8c-0.4,1.23-0.61,2.52-0.61,3.82
		C55.02,26.68,55.09,27.99,55.61,29.26L55.61,29.26z"/>
	<path class="st1" d="M59.61,35.02c2.41,1.8,5.14,2.63,8.13,2.63c2.56,0,5.11-1.07,7.1-2.65c-1.67-2.8-2.69-5.99-2.69-9.27
		c0-3.53,0.92-6.88,2.73-9.9c-2.19-1.7-4.88-2.67-7.65-2.67c-2.77,0-5.38,0.98-7.57,2.65c1.92,3.14,2.69,6.31,2.69,10.03
		C62.35,29.08,61.29,32.27,59.61,35.02L59.61,35.02z"/>
	<path class="st1" d="M78.85,29.27c0.41-1.31,0.62-2.61,0.62-3.99c0-1.28-0.22-2.54-0.61-3.75c-0.38,1.22-0.63,2.42-0.63,3.7
		C78.23,26.62,78.42,27.95,78.85,29.27L78.85,29.27z"/>
	<path class="st1" d="M82.91,35.04c2.19,1.67,4.85,2.65,7.61,2.65c6.81,0,12.22-5.56,12.22-12.33c0-6.64-5.73-12.2-12.33-12.2
		c-2.73,0-5.33,1.01-7.49,2.64c1.7,2.89,2.7,6.17,2.7,9.54C85.62,28.78,84.48,32.01,82.91,35.04L82.91,35.04z"/>
</g>
</svg>
